<mxfile host="app.diagrams.net" modified="2024-03-08T08:09:58.434Z" agent="Mozilla/5.0 (Macintosh; Intel Mac OS X 10_15_7) AppleWebKit/537.36 (KHTML, like Gecko) Chrome/122.0.0.0 Safari/537.36" etag="NXwGfVzmkZhfAtjwBHg2" version="24.0.2" type="github">
  <diagram name="第 1 页" id="zcuINYi5yBSdiXbuYtzG">
    <mxGraphModel dx="1306" dy="1919" grid="1" gridSize="10" guides="1" tooltips="1" connect="1" arrows="1" fold="1" page="1" pageScale="1" pageWidth="827" pageHeight="1169" math="0" shadow="0">
      <root>
        <mxCell id="0" />
        <mxCell id="1" parent="0" />
        <mxCell id="jN4faiQt9KvXkNwv9UII-45" value="" style="whiteSpace=wrap;html=1;shape=mxgraph.basic.rectCallout;dx=24;dy=41;boundedLbl=1;fillColor=#d5e8d4;strokeColor=#82b366;" parent="1" vertex="1">
          <mxGeometry x="230" y="-15" width="500" height="270" as="geometry" />
        </mxCell>
        <mxCell id="jN4faiQt9KvXkNwv9UII-1" value="自动领取优惠券" style="text;html=1;align=center;verticalAlign=middle;whiteSpace=wrap;rounded=0;fontSize=16;fontStyle=1" parent="1" vertex="1">
          <mxGeometry x="50" y="20" width="120" height="20" as="geometry" />
        </mxCell>
        <mxCell id="jN4faiQt9KvXkNwv9UII-20" value="" style="edgeStyle=orthogonalEdgeStyle;rounded=0;orthogonalLoop=1;jettySize=auto;html=1;entryX=0.5;entryY=0;entryDx=0;entryDy=0;" parent="1" source="jN4faiQt9KvXkNwv9UII-7" target="jN4faiQt9KvXkNwv9UII-34" edge="1">
          <mxGeometry relative="1" as="geometry">
            <mxPoint x="160" y="230" as="targetPoint" />
          </mxGeometry>
        </mxCell>
        <mxCell id="jN4faiQt9KvXkNwv9UII-7" value="开始" style="strokeWidth=2;html=1;shape=mxgraph.flowchart.start_1;whiteSpace=wrap;" parent="1" vertex="1">
          <mxGeometry x="110" y="90" width="100" height="60" as="geometry" />
        </mxCell>
        <mxCell id="jN4faiQt9KvXkNwv9UII-25" value="" style="edgeStyle=orthogonalEdgeStyle;rounded=0;orthogonalLoop=1;jettySize=auto;html=1;exitX=0.5;exitY=1;exitDx=0;exitDy=0;" parent="1" source="jN4faiQt9KvXkNwv9UII-34" target="jN4faiQt9KvXkNwv9UII-24" edge="1">
          <mxGeometry relative="1" as="geometry">
            <mxPoint x="160" y="290" as="sourcePoint" />
          </mxGeometry>
        </mxCell>
        <mxCell id="jN4faiQt9KvXkNwv9UII-29" style="edgeStyle=orthogonalEdgeStyle;rounded=0;orthogonalLoop=1;jettySize=auto;html=1;entryX=1;entryY=0.5;entryDx=0;entryDy=0;" parent="1" source="jN4faiQt9KvXkNwv9UII-24" target="jN4faiQt9KvXkNwv9UII-52" edge="1">
          <mxGeometry relative="1" as="geometry">
            <Array as="points">
              <mxPoint x="240" y="390" />
              <mxPoint x="240" y="800" />
            </Array>
          </mxGeometry>
        </mxCell>
        <mxCell id="jN4faiQt9KvXkNwv9UII-31" value="无" style="edgeLabel;html=1;align=center;verticalAlign=middle;resizable=0;points=[];" parent="jN4faiQt9KvXkNwv9UII-29" vertex="1" connectable="0">
          <mxGeometry x="-0.0833" y="4" relative="1" as="geometry">
            <mxPoint x="5" y="4" as="offset" />
          </mxGeometry>
        </mxCell>
        <mxCell id="jN4faiQt9KvXkNwv9UII-33" value="是" style="edgeStyle=orthogonalEdgeStyle;rounded=0;orthogonalLoop=1;jettySize=auto;html=1;" parent="1" source="jN4faiQt9KvXkNwv9UII-24" target="jN4faiQt9KvXkNwv9UII-32" edge="1">
          <mxGeometry relative="1" as="geometry" />
        </mxCell>
        <mxCell id="jN4faiQt9KvXkNwv9UII-24" value="是否存在" style="rhombus;whiteSpace=wrap;html=1;strokeWidth=2;" parent="1" vertex="1">
          <mxGeometry x="120" y="350" width="80" height="80" as="geometry" />
        </mxCell>
        <mxCell id="jN4faiQt9KvXkNwv9UII-26" value="结束" style="strokeWidth=2;html=1;shape=mxgraph.flowchart.terminator;whiteSpace=wrap;" parent="1" vertex="1">
          <mxGeometry x="110" y="900" width="100" height="60" as="geometry" />
        </mxCell>
        <mxCell id="jN4faiQt9KvXkNwv9UII-48" value="" style="edgeStyle=orthogonalEdgeStyle;rounded=0;orthogonalLoop=1;jettySize=auto;html=1;" parent="1" source="jN4faiQt9KvXkNwv9UII-32" target="jN4faiQt9KvXkNwv9UII-47" edge="1">
          <mxGeometry relative="1" as="geometry" />
        </mxCell>
        <mxCell id="jN4faiQt9KvXkNwv9UII-32" value="查询用户已领取的优惠券信息" style="whiteSpace=wrap;html=1;strokeWidth=2;" parent="1" vertex="1">
          <mxGeometry x="100" y="500" width="120" height="60" as="geometry" />
        </mxCell>
        <mxCell id="jN4faiQt9KvXkNwv9UII-34" value="根据应用和SPU&lt;div&gt;查询所有可以领取的开放优惠券信息&lt;/div&gt;" style="rounded=1;whiteSpace=wrap;html=1;absoluteArcSize=1;arcSize=14;strokeWidth=2;" parent="1" vertex="1">
          <mxGeometry x="110" y="200" width="100" height="100" as="geometry" />
        </mxCell>
        <mxCell id="jN4faiQt9KvXkNwv9UII-38" value="" style="edgeStyle=orthogonalEdgeStyle;rounded=0;orthogonalLoop=1;jettySize=auto;html=1;" parent="1" source="jN4faiQt9KvXkNwv9UII-36" target="jN4faiQt9KvXkNwv9UII-37" edge="1">
          <mxGeometry relative="1" as="geometry" />
        </mxCell>
        <mxCell id="jN4faiQt9KvXkNwv9UII-36" value="查询类目" style="rounded=0;whiteSpace=wrap;html=1;" parent="1" vertex="1">
          <mxGeometry x="325" y="-10" width="120" height="60" as="geometry" />
        </mxCell>
        <mxCell id="jN4faiQt9KvXkNwv9UII-37" value="获取指定类目的优惠券" style="rounded=0;whiteSpace=wrap;html=1;" parent="1" vertex="1">
          <mxGeometry x="525" y="-10" width="120" height="60" as="geometry" />
        </mxCell>
        <mxCell id="jN4faiQt9KvXkNwv9UII-41" value="" style="edgeStyle=orthogonalEdgeStyle;rounded=0;orthogonalLoop=1;jettySize=auto;html=1;" parent="1" source="jN4faiQt9KvXkNwv9UII-39" target="jN4faiQt9KvXkNwv9UII-40" edge="1">
          <mxGeometry relative="1" as="geometry" />
        </mxCell>
        <mxCell id="jN4faiQt9KvXkNwv9UII-39" value="查询商品" style="rounded=0;whiteSpace=wrap;html=1;" parent="1" vertex="1">
          <mxGeometry x="325" y="74" width="120" height="60" as="geometry" />
        </mxCell>
        <mxCell id="jN4faiQt9KvXkNwv9UII-40" value="获取指定商品的优惠券" style="rounded=0;whiteSpace=wrap;html=1;" parent="1" vertex="1">
          <mxGeometry x="525" y="74" width="120" height="60" as="geometry" />
        </mxCell>
        <mxCell id="jN4faiQt9KvXkNwv9UII-42" value="" style="edgeStyle=orthogonalEdgeStyle;rounded=0;orthogonalLoop=1;jettySize=auto;html=1;" parent="1" source="jN4faiQt9KvXkNwv9UII-43" target="jN4faiQt9KvXkNwv9UII-44" edge="1">
          <mxGeometry relative="1" as="geometry" />
        </mxCell>
        <mxCell id="jN4faiQt9KvXkNwv9UII-43" value="查询通用券" style="rounded=0;whiteSpace=wrap;html=1;" parent="1" vertex="1">
          <mxGeometry x="325" y="153" width="120" height="57" as="geometry" />
        </mxCell>
        <mxCell id="jN4faiQt9KvXkNwv9UII-44" value="获取通用的优惠券" style="rounded=0;whiteSpace=wrap;html=1;" parent="1" vertex="1">
          <mxGeometry x="525" y="153" width="120" height="57" as="geometry" />
        </mxCell>
        <mxCell id="jN4faiQt9KvXkNwv9UII-53" value="" style="edgeStyle=orthogonalEdgeStyle;rounded=0;orthogonalLoop=1;jettySize=auto;html=1;" parent="1" source="jN4faiQt9KvXkNwv9UII-47" target="jN4faiQt9KvXkNwv9UII-52" edge="1">
          <mxGeometry relative="1" as="geometry" />
        </mxCell>
        <mxCell id="jN4faiQt9KvXkNwv9UII-47" value="排除已领取优惠券&lt;div&gt;将剩余优惠券全部领取&lt;/div&gt;" style="whiteSpace=wrap;html=1;strokeWidth=2;" parent="1" vertex="1">
          <mxGeometry x="100" y="630" width="120" height="60" as="geometry" />
        </mxCell>
        <mxCell id="jN4faiQt9KvXkNwv9UII-54" value="" style="edgeStyle=orthogonalEdgeStyle;rounded=0;orthogonalLoop=1;jettySize=auto;html=1;" parent="1" source="jN4faiQt9KvXkNwv9UII-52" target="jN4faiQt9KvXkNwv9UII-26" edge="1">
          <mxGeometry relative="1" as="geometry" />
        </mxCell>
        <mxCell id="jN4faiQt9KvXkNwv9UII-52" value="查询用户已领取的优惠券信息并返回" style="whiteSpace=wrap;html=1;strokeWidth=2;" parent="1" vertex="1">
          <mxGeometry x="100" y="770" width="120" height="60" as="geometry" />
        </mxCell>
        <mxCell id="jN4faiQt9KvXkNwv9UII-58" value="" style="edgeStyle=orthogonalEdgeStyle;rounded=0;orthogonalLoop=1;jettySize=auto;html=1;" parent="1" source="jN4faiQt9KvXkNwv9UII-55" target="jN4faiQt9KvXkNwv9UII-57" edge="1">
          <mxGeometry relative="1" as="geometry" />
        </mxCell>
        <mxCell id="jN4faiQt9KvXkNwv9UII-55" value="开始" style="strokeWidth=2;html=1;shape=mxgraph.flowchart.start_1;whiteSpace=wrap;" parent="1" vertex="1">
          <mxGeometry x="950" y="80" width="100" height="60" as="geometry" />
        </mxCell>
        <mxCell id="jN4faiQt9KvXkNwv9UII-56" value="下单使用优惠券" style="text;html=1;align=center;verticalAlign=middle;whiteSpace=wrap;rounded=0;fontSize=16;fontStyle=1" parent="1" vertex="1">
          <mxGeometry x="900" y="20" width="120" height="20" as="geometry" />
        </mxCell>
        <mxCell id="jN4faiQt9KvXkNwv9UII-62" value="" style="edgeStyle=orthogonalEdgeStyle;rounded=0;orthogonalLoop=1;jettySize=auto;html=1;" parent="1" source="jN4faiQt9KvXkNwv9UII-57" target="jN4faiQt9KvXkNwv9UII-61" edge="1">
          <mxGeometry relative="1" as="geometry" />
        </mxCell>
        <mxCell id="jN4faiQt9KvXkNwv9UII-57" value="前端根据返回的已领取的优惠券信息&lt;div&gt;按需求选择最合适的一张作为参数提交下单&lt;/div&gt;" style="whiteSpace=wrap;html=1;strokeWidth=2;" parent="1" vertex="1">
          <mxGeometry x="940" y="220" width="120" height="60" as="geometry" />
        </mxCell>
        <mxCell id="jN4faiQt9KvXkNwv9UII-60" value="用户也可以手&lt;div&gt;动选择优惠券&lt;/div&gt;" style="strokeWidth=2;html=1;shape=mxgraph.flowchart.annotation_1;align=left;pointerEvents=1;" parent="1" vertex="1">
          <mxGeometry x="1070" y="200" width="50" height="100" as="geometry" />
        </mxCell>
        <mxCell id="jN4faiQt9KvXkNwv9UII-64" value="" style="edgeStyle=orthogonalEdgeStyle;rounded=0;orthogonalLoop=1;jettySize=auto;html=1;" parent="1" source="jN4faiQt9KvXkNwv9UII-61" target="jN4faiQt9KvXkNwv9UII-63" edge="1">
          <mxGeometry relative="1" as="geometry" />
        </mxCell>
        <mxCell id="jN4faiQt9KvXkNwv9UII-61" value="原创建订单逻辑" style="whiteSpace=wrap;html=1;strokeWidth=2;" parent="1" vertex="1">
          <mxGeometry x="940" y="360" width="120" height="60" as="geometry" />
        </mxCell>
        <mxCell id="jN4faiQt9KvXkNwv9UII-67" value="" style="edgeStyle=orthogonalEdgeStyle;rounded=0;orthogonalLoop=1;jettySize=auto;html=1;" parent="1" source="jN4faiQt9KvXkNwv9UII-63" target="jN4faiQt9KvXkNwv9UII-66" edge="1">
          <mxGeometry relative="1" as="geometry" />
        </mxCell>
        <mxCell id="jN4faiQt9KvXkNwv9UII-68" value="锁定失败" style="edgeLabel;html=1;align=center;verticalAlign=middle;resizable=0;points=[];" parent="jN4faiQt9KvXkNwv9UII-67" vertex="1" connectable="0">
          <mxGeometry x="-0.0088" y="4" relative="1" as="geometry">
            <mxPoint x="-3" y="-13" as="offset" />
          </mxGeometry>
        </mxCell>
        <mxCell id="jN4faiQt9KvXkNwv9UII-72" value="" style="edgeStyle=orthogonalEdgeStyle;rounded=0;orthogonalLoop=1;jettySize=auto;html=1;" parent="1" source="jN4faiQt9KvXkNwv9UII-63" target="jN4faiQt9KvXkNwv9UII-71" edge="1">
          <mxGeometry relative="1" as="geometry" />
        </mxCell>
        <mxCell id="jN4faiQt9KvXkNwv9UII-63" value="锁定优惠券" style="whiteSpace=wrap;html=1;strokeWidth=2;" parent="1" vertex="1">
          <mxGeometry x="940" y="500" width="120" height="60" as="geometry" />
        </mxCell>
        <mxCell id="jN4faiQt9KvXkNwv9UII-66" value="下单失败" style="strokeWidth=2;html=1;shape=mxgraph.flowchart.terminator;whiteSpace=wrap;" parent="1" vertex="1">
          <mxGeometry x="727" y="500" width="100" height="60" as="geometry" />
        </mxCell>
        <mxCell id="lBdvo_NwAOxLUyf6sKMl-2" value="" style="rounded=0;orthogonalLoop=1;jettySize=auto;html=1;entryX=0.5;entryY=0;entryDx=0;entryDy=0;dashed=1;exitX=0.11;exitY=0.89;exitDx=0;exitDy=0;exitPerimeter=0;" edge="1" parent="1" source="lBdvo_NwAOxLUyf6sKMl-20" target="jN4faiQt9KvXkNwv9UII-73">
          <mxGeometry relative="1" as="geometry">
            <mxPoint x="1460" y="670" as="targetPoint" />
          </mxGeometry>
        </mxCell>
        <mxCell id="lBdvo_NwAOxLUyf6sKMl-18" value="&amp;nbsp; &amp;nbsp; 支付完成" style="edgeLabel;html=1;align=center;verticalAlign=middle;resizable=0;points=[];" vertex="1" connectable="0" parent="lBdvo_NwAOxLUyf6sKMl-2">
          <mxGeometry x="-0.3455" relative="1" as="geometry">
            <mxPoint y="1" as="offset" />
          </mxGeometry>
        </mxCell>
        <mxCell id="lBdvo_NwAOxLUyf6sKMl-9" style="edgeStyle=orthogonalEdgeStyle;rounded=0;orthogonalLoop=1;jettySize=auto;html=1;entryX=0.5;entryY=0;entryDx=0;entryDy=0;dashed=1;exitX=0.5;exitY=1;exitDx=0;exitDy=0;exitPerimeter=0;" edge="1" parent="1" source="lBdvo_NwAOxLUyf6sKMl-20" target="lBdvo_NwAOxLUyf6sKMl-6">
          <mxGeometry relative="1" as="geometry" />
        </mxCell>
        <mxCell id="lBdvo_NwAOxLUyf6sKMl-10" value="取消支付&lt;div&gt;超时未支付&lt;/div&gt;" style="edgeLabel;html=1;align=center;verticalAlign=middle;resizable=0;points=[];" vertex="1" connectable="0" parent="lBdvo_NwAOxLUyf6sKMl-9">
          <mxGeometry x="-0.0167" y="-2" relative="1" as="geometry">
            <mxPoint y="1" as="offset" />
          </mxGeometry>
        </mxCell>
        <mxCell id="jN4faiQt9KvXkNwv9UII-69" value="返回订单信息(支付信息)" style="whiteSpace=wrap;html=1;strokeWidth=2;" parent="1" vertex="1">
          <mxGeometry x="1200" y="640" width="120" height="60" as="geometry" />
        </mxCell>
        <mxCell id="jN4faiQt9KvXkNwv9UII-74" value="否" style="edgeStyle=orthogonalEdgeStyle;rounded=0;orthogonalLoop=1;jettySize=auto;html=1;entryX=0.5;entryY=0;entryDx=0;entryDy=0;" parent="1" source="jN4faiQt9KvXkNwv9UII-71" target="lBdvo_NwAOxLUyf6sKMl-3" edge="1">
          <mxGeometry relative="1" as="geometry" />
        </mxCell>
        <mxCell id="jN4faiQt9KvXkNwv9UII-77" value="" style="edgeStyle=orthogonalEdgeStyle;rounded=0;orthogonalLoop=1;jettySize=auto;html=1;" parent="1" source="jN4faiQt9KvXkNwv9UII-71" target="jN4faiQt9KvXkNwv9UII-69" edge="1">
          <mxGeometry relative="1" as="geometry" />
        </mxCell>
        <mxCell id="jN4faiQt9KvXkNwv9UII-78" value="是" style="edgeLabel;html=1;align=center;verticalAlign=middle;resizable=0;points=[];" parent="jN4faiQt9KvXkNwv9UII-77" vertex="1" connectable="0">
          <mxGeometry x="-0.0182" relative="1" as="geometry">
            <mxPoint as="offset" />
          </mxGeometry>
        </mxCell>
        <mxCell id="jN4faiQt9KvXkNwv9UII-71" value="是否需求支付" style="rhombus;whiteSpace=wrap;html=1;strokeWidth=2;" parent="1" vertex="1">
          <mxGeometry x="960" y="630" width="80" height="80" as="geometry" />
        </mxCell>
        <mxCell id="lBdvo_NwAOxLUyf6sKMl-7" style="edgeStyle=orthogonalEdgeStyle;rounded=0;orthogonalLoop=1;jettySize=auto;html=1;" edge="1" parent="1" source="jN4faiQt9KvXkNwv9UII-73" target="lBdvo_NwAOxLUyf6sKMl-6">
          <mxGeometry relative="1" as="geometry" />
        </mxCell>
        <mxCell id="lBdvo_NwAOxLUyf6sKMl-8" value="发货失败" style="edgeLabel;html=1;align=center;verticalAlign=middle;resizable=0;points=[];" vertex="1" connectable="0" parent="lBdvo_NwAOxLUyf6sKMl-7">
          <mxGeometry x="-0.1333" y="-2" relative="1" as="geometry">
            <mxPoint y="-10" as="offset" />
          </mxGeometry>
        </mxCell>
        <mxCell id="lBdvo_NwAOxLUyf6sKMl-22" style="edgeStyle=orthogonalEdgeStyle;rounded=0;orthogonalLoop=1;jettySize=auto;html=1;" edge="1" parent="1" source="jN4faiQt9KvXkNwv9UII-73" target="lBdvo_NwAOxLUyf6sKMl-14">
          <mxGeometry relative="1" as="geometry" />
        </mxCell>
        <mxCell id="jN4faiQt9KvXkNwv9UII-73" value="异步发起发货流程" style="whiteSpace=wrap;html=1;strokeWidth=2;" parent="1" vertex="1">
          <mxGeometry x="1200" y="800" width="120" height="60" as="geometry" />
        </mxCell>
        <mxCell id="jN4faiQt9KvXkNwv9UII-79" value="订单详情页" style="strokeWidth=2;html=1;shape=mxgraph.flowchart.terminator;whiteSpace=wrap;" parent="1" vertex="1">
          <mxGeometry x="950" y="940" width="100" height="60" as="geometry" />
        </mxCell>
        <mxCell id="lBdvo_NwAOxLUyf6sKMl-5" value="" style="edgeStyle=orthogonalEdgeStyle;rounded=0;orthogonalLoop=1;jettySize=auto;html=1;" edge="1" parent="1" source="lBdvo_NwAOxLUyf6sKMl-3" target="jN4faiQt9KvXkNwv9UII-79">
          <mxGeometry relative="1" as="geometry" />
        </mxCell>
        <mxCell id="lBdvo_NwAOxLUyf6sKMl-3" value="返回订单信息" style="whiteSpace=wrap;html=1;strokeWidth=2;" vertex="1" parent="1">
          <mxGeometry x="940" y="800" width="120" height="60" as="geometry" />
        </mxCell>
        <mxCell id="lBdvo_NwAOxLUyf6sKMl-24" style="edgeStyle=orthogonalEdgeStyle;rounded=0;orthogonalLoop=1;jettySize=auto;html=1;exitX=0.5;exitY=1;exitDx=0;exitDy=0;" edge="1" parent="1" source="lBdvo_NwAOxLUyf6sKMl-6" target="lBdvo_NwAOxLUyf6sKMl-23">
          <mxGeometry relative="1" as="geometry" />
        </mxCell>
        <mxCell id="lBdvo_NwAOxLUyf6sKMl-25" value="发货失败&lt;div&gt;订单退款&lt;/div&gt;" style="edgeLabel;html=1;align=center;verticalAlign=middle;resizable=0;points=[];" vertex="1" connectable="0" parent="lBdvo_NwAOxLUyf6sKMl-24">
          <mxGeometry x="0.17" y="2" relative="1" as="geometry">
            <mxPoint as="offset" />
          </mxGeometry>
        </mxCell>
        <mxCell id="lBdvo_NwAOxLUyf6sKMl-6" value="解锁优惠券" style="whiteSpace=wrap;html=1;strokeWidth=2;" vertex="1" parent="1">
          <mxGeometry x="1440" y="800" width="120" height="60" as="geometry" />
        </mxCell>
        <mxCell id="lBdvo_NwAOxLUyf6sKMl-26" style="edgeStyle=orthogonalEdgeStyle;rounded=0;orthogonalLoop=1;jettySize=auto;html=1;" edge="1" parent="1" source="lBdvo_NwAOxLUyf6sKMl-14" target="lBdvo_NwAOxLUyf6sKMl-23">
          <mxGeometry relative="1" as="geometry" />
        </mxCell>
        <mxCell id="lBdvo_NwAOxLUyf6sKMl-27" value="发货完成&lt;div&gt;订单完成&lt;/div&gt;" style="edgeLabel;html=1;align=center;verticalAlign=middle;resizable=0;points=[];" vertex="1" connectable="0" parent="lBdvo_NwAOxLUyf6sKMl-26">
          <mxGeometry x="-0.1231" y="-4" relative="1" as="geometry">
            <mxPoint y="1" as="offset" />
          </mxGeometry>
        </mxCell>
        <mxCell id="lBdvo_NwAOxLUyf6sKMl-14" value="优惠券更新为已使用" style="whiteSpace=wrap;html=1;strokeWidth=2;" vertex="1" parent="1">
          <mxGeometry x="1200" y="940" width="120" height="60" as="geometry" />
        </mxCell>
        <mxCell id="lBdvo_NwAOxLUyf6sKMl-17" value="" style="edgeStyle=none;orthogonalLoop=1;jettySize=auto;html=1;rounded=0;entryX=0.5;entryY=0;entryDx=0;entryDy=0;exitX=1;exitY=1;exitDx=0;exitDy=0;dashed=1;" edge="1" parent="1" source="jN4faiQt9KvXkNwv9UII-71" target="jN4faiQt9KvXkNwv9UII-73">
          <mxGeometry width="100" relative="1" as="geometry">
            <mxPoint x="970" y="690" as="sourcePoint" />
            <mxPoint x="1070" y="690" as="targetPoint" />
            <Array as="points" />
          </mxGeometry>
        </mxCell>
        <mxCell id="lBdvo_NwAOxLUyf6sKMl-19" value="异步" style="edgeLabel;html=1;align=center;verticalAlign=middle;resizable=0;points=[];" vertex="1" connectable="0" parent="lBdvo_NwAOxLUyf6sKMl-17">
          <mxGeometry x="-0.1274" y="1" relative="1" as="geometry">
            <mxPoint y="1" as="offset" />
          </mxGeometry>
        </mxCell>
        <mxCell id="lBdvo_NwAOxLUyf6sKMl-20" value="支付页" style="strokeWidth=2;html=1;shape=mxgraph.flowchart.terminator;whiteSpace=wrap;" vertex="1" parent="1">
          <mxGeometry x="1450" y="640" width="100" height="60" as="geometry" />
        </mxCell>
        <mxCell id="lBdvo_NwAOxLUyf6sKMl-21" style="edgeStyle=orthogonalEdgeStyle;rounded=0;orthogonalLoop=1;jettySize=auto;html=1;entryX=0;entryY=0.5;entryDx=0;entryDy=0;entryPerimeter=0;" edge="1" parent="1" source="jN4faiQt9KvXkNwv9UII-69" target="lBdvo_NwAOxLUyf6sKMl-20">
          <mxGeometry relative="1" as="geometry" />
        </mxCell>
        <mxCell id="lBdvo_NwAOxLUyf6sKMl-23" value="订单详情页" style="strokeWidth=2;html=1;shape=mxgraph.flowchart.terminator;whiteSpace=wrap;" vertex="1" parent="1">
          <mxGeometry x="1450" y="940" width="100" height="60" as="geometry" />
        </mxCell>
      </root>
    </mxGraphModel>
  </diagram>
</mxfile>
